<svg width="42" height="42" viewBox="0 0 42 42" fill="none" xmlns="http://www.w3.org/2000/svg">
<g id="fruit">
<g id="Group 980">
<path id="Union" fill-rule="evenodd" clip-rule="evenodd" d="M17.61 3.12895C17.2905 2.9041 16.8492 2.98085 16.6244 3.30036C16.3995 3.61987 16.4763 4.06116 16.7958 4.286C17.2356 4.59552 17.9015 5.14953 18.4418 5.78112C19.0122 6.4479 19.3071 7.04457 19.2903 7.46386C19.2806 7.70724 19.3967 7.93852 19.5978 8.07603C19.7988 8.21354 20.0565 8.23795 20.2798 8.14063C22.1924 7.30708 25.288 6.39504 28.3223 6.36554C31.1475 6.33808 33.784 7.07007 35.4555 9.18137C33.6848 10.6433 31.0528 12.2627 28.3753 12.8495C26.9181 13.1689 25.4831 13.1749 24.1724 12.7197C22.8724 12.2683 21.6362 11.3435 20.5952 9.69626C20.4843 9.52079 20.3089 9.41074 20.1194 9.37742L20.0845 9.33388C19.9849 9.33207 19.885 9.33116 19.7849 9.33116C11.6194 9.33116 5 15.3778 5 23.055C5 30.7321 11.6194 36.9556 19.7849 36.9556C27.9504 36.9556 34.5699 30.7321 34.5699 23.055C34.5699 19.3917 33.0627 16.0997 30.5996 13.6588C33.1169 12.7179 35.3935 11.1453 36.8791 9.82476C37.1412 9.59177 37.1931 9.2019 37.001 8.9085C34.9869 5.8327 31.576 4.91902 28.3086 4.95078C25.4461 4.97861 22.5732 5.72711 20.5349 6.50853C20.314 5.89111 19.9106 5.32158 19.5169 4.86139C18.8847 4.12237 18.1252 3.49147 17.61 3.12895ZM29.0484 14.1446C28.9253 14.1754 28.8019 14.2044 28.6782 14.2315C27.0423 14.5901 25.3302 14.6195 23.7083 14.0562C22.1623 13.5194 20.7515 12.4623 19.592 10.7472C12.1923 10.841 6.41483 16.3213 6.41483 23.055C6.41483 29.8698 12.3174 35.5408 19.7849 35.5408C27.2525 35.5408 33.155 29.8698 33.155 23.055C33.155 19.5515 31.5911 16.3873 29.0484 14.1446Z" fill="white"/>
</g>
</g>
</svg>
